<svg width="470" height="68" viewBox="0 0 470 68" fill="none" xmlns="http://www.w3.org/2000/svg">
<path d="M67.5625 46.457L67.6328 44.0664C67.6797 42.5664 67.8203 40.9258 68.0547 39.1445L68.6172 34.9961C68.7344 34.0117 68.8516 33.1211 68.9688 32.3242C66.7422 34.7617 64.9492 36.6602 63.5898 38.0195L59.5469 41.957C50.5 50.418 45.1094 54.6484 43.375 54.6484C40.8203 54.6484 38.1367 54.0977 35.3242 52.9961C33.8008 52.3867 32.9336 51.7539 32.7227 51.0977C32.3945 50.2773 32.2305 49.1641 32.2305 47.7578C32.2305 46.3281 32.2773 45.0156 32.3711 43.8203C32.4648 42.625 32.582 41.4414 32.7227 40.2695C32.8633 39.0742 33.0039 37.9375 33.1445 36.8594C33.3086 35.7578 33.4375 34.7969 33.5312 33.9766C33.7656 32.125 33.8125 31.1992 33.6719 31.1992L20.5938 47.2656C14.4297 54.5078 10.9258 58.5156 10.082 59.2891C8.27734 60.9297 6.28516 61.75 4.10547 61.75C3.02734 61.75 2.13672 61.4805 1.43359 60.9414C0.730469 60.4023 0.378906 59.7344 0.378906 58.9375C0.378906 57.3438 1.04688 55.6797 2.38281 53.9453L33.6016 14.2539L37.2578 9.85938C41.6172 4.72656 44.4766 2.16016 45.8359 2.16016C47.7344 2.16016 49.5391 2.64063 51.25 3.60156C52.7734 4.44531 53.6406 5.26562 53.8516 6.0625C53.9453 6.36719 53.7461 7.78516 53.2539 10.3164L52.0234 16.9609C50.6406 24.3672 49.9492 29.1484 49.9492 31.3047C49.9492 33.4375 50.1953 34.5039 50.6875 34.5039C52.2812 34.5039 55.3516 31.8906 59.8984 26.6641L71.2891 13.0234C73.7969 10.1406 75.4609 8.5 76.2812 8.10156C76.5156 7.98438 76.8555 7.92578 77.3008 7.92578C77.7461 7.92578 78.2383 7.98438 78.7773 8.10156C79.3398 8.21875 79.9023 8.37109 80.4648 8.55859C81.0508 8.74609 81.6133 8.96875 82.1523 9.22656C82.6914 9.48437 83.1719 9.75391 83.5938 10.0352C84.5078 10.6445 84.9531 11.1484 84.9297 11.5469C84.9297 11.9219 84.8359 12.7539 84.6484 14.043C84.4609 15.3086 84.2266 16.8555 83.9453 18.6836C82 30.8008 80.9805 37.832 80.8867 39.7773C80.8164 41.7227 81.0156 42.9414 81.4844 43.4336C81.9766 43.9258 82.6914 44.1719 83.6289 44.1719C85.3398 44.1719 87.8242 43.1523 91.082 41.1133C93.2852 39.7305 95.1016 39.0391 96.5312 39.0391C97.9844 39.0391 98.7109 39.7305 98.7109 41.1133C98.7109 42.543 97.9375 44.2773 96.3906 46.3164C94.1641 49.2695 90.8359 51.9414 86.4062 54.332C82.6797 56.3242 79.1406 57.3203 75.7891 57.3203C70.3047 57.3203 67.5625 53.6992 67.5625 46.457ZM160.902 28.5977C161.652 28.5977 162.027 29.2305 162.027 30.4961C162.027 32.6758 160.504 35.5 157.457 38.9688L155.453 41.0078C149.383 47.0781 143.664 51.1211 138.297 53.1367C134.969 54.3789 132.578 54.3203 131.125 52.9609C129.93 51.8125 128.98 49.9609 128.277 47.4062L127.434 44.3477L119.945 48.9531L115.621 51.4141C110.465 54.2266 106.598 55.6328 104.02 55.6328C100.715 55.6328 97.9609 54.3555 95.7578 51.8008C93.6484 49.3867 92.5938 46.5859 92.5938 43.3984C92.5938 40.2578 93.8477 37.457 96.3555 34.9961C99.9414 31.4805 105.602 28.2578 113.336 25.3281C120.648 22.5859 126.555 21.2148 131.055 21.2148C132.578 21.2148 133.34 21.9648 133.34 23.4648C133.34 24.4961 133.141 25.2695 132.742 25.7852C132.344 26.3008 131.523 26.8281 130.281 27.3672L125.852 29.2656C119.289 32.0078 114.484 34.8555 111.438 37.8086C110.57 38.6289 110.137 39.4258 110.137 40.1992C110.137 40.9727 110.758 41.3594 112 41.3594C113.219 41.3594 116.055 40.0469 120.508 37.4219L123.426 35.6992C127.949 32.9805 131.734 31.6211 134.781 31.6211C137.359 31.6211 139.07 32.7578 139.914 35.0312C140.125 35.6406 140.324 36.2617 140.512 36.8945C140.699 37.5039 140.887 38.0547 141.074 38.5469C141.496 39.6953 141.871 40.2695 142.199 40.2695C142.551 40.2695 143.043 40.1055 143.676 39.7773C144.309 39.4258 145 38.9922 145.75 38.4766C146.523 37.9375 147.32 37.3516 148.141 36.7188L152.395 33.3086C156.168 30.168 159.004 28.5977 160.902 28.5977ZM185.266 56.6875C180.461 56.6875 175.727 53.6172 171.062 47.4766L166.984 50.5C162.648 53.5938 159.766 55.1406 158.336 55.1406C156.719 55.1406 155.219 54.5312 153.836 53.3125C153.438 52.9609 153.145 52.5859 152.957 52.1875C152.09 51.3203 151.656 49.0586 151.656 45.4023C151.656 41.7227 152.066 38.2773 152.887 35.0664C153.707 31.8555 154.773 28.8789 156.086 26.1367C158.148 21.8242 161.348 17.0898 165.684 11.9336C168.121 8.41797 171.109 5.53516 174.648 3.28516C177.648 1.38672 180.156 0.4375 182.172 0.4375C183.273 0.4375 184.199 0.683594 184.949 1.17578C185.723 1.66797 186.109 2.33594 186.109 3.17969C186.109 4.02344 185.781 4.94922 185.125 5.95703C177.414 17.207 172.961 23.7695 171.766 25.6445C170.57 27.5195 169.727 28.9609 169.234 29.9688C168.742 30.9766 168.379 31.75 168.145 32.2891C167.91 32.8047 167.688 33.3438 167.477 33.9062C166.984 35.2188 166.738 36.168 166.738 36.7539C166.738 37.3398 167.184 37.6328 168.074 37.6328C168.895 37.6328 171.039 35.5117 174.508 31.2695L179.219 25.4336C180.953 23.2539 182.746 21.7539 184.598 20.9336C186.473 20.1133 188.102 19.7031 189.484 19.7031C193.398 19.7031 195.355 20.6523 195.355 22.5508C195.355 24.2617 194.055 26.6641 191.453 29.7578C191.172 30.0859 190.75 30.5312 190.188 31.0938L185.477 35.4531L182.348 38.2305C184.551 40.8086 186.719 42.625 188.852 43.6797C189.344 43.9141 189.754 44.0312 190.082 44.0312C190.434 44.0312 191.055 43.8203 191.945 43.3984C192.836 42.9531 193.832 42.3906 194.934 41.7109C196.059 41.0078 197.242 40.2227 198.484 39.3555L208.117 32.3242C208.961 31.668 209.805 31.3398 210.648 31.3398C212.406 31.3398 213.285 32.0664 213.285 33.5195C213.285 35.418 212.359 37.6328 210.508 40.1641C209.945 40.9141 209.406 41.5469 208.891 42.0625L206.641 44.1016C200.359 49.9375 194.664 53.8281 189.555 55.7734C188.008 56.3828 186.578 56.6875 185.266 56.6875ZM256.105 29.1602C257.23 29.1602 257.793 29.793 257.793 31.0586C257.793 31.9023 257.5 32.9688 256.914 34.2578C256.352 35.5234 255.531 36.7188 254.453 37.8438C253.375 38.9453 252.133 40.0938 250.727 41.2891C249.344 42.4844 247.715 43.7383 245.84 45.0508C243.988 46.3633 241.938 47.6641 239.688 48.9531C237.438 50.2422 235.047 51.4023 232.516 52.4336C226.914 54.7305 221.488 55.8789 216.238 55.8789C212.23 55.8789 208.727 54.8359 205.727 52.75C202.586 50.5703 201.016 47.9219 201.016 44.8047C201.016 39.9062 203.652 35.2539 208.926 30.8477C213.473 27.0508 218.828 24.1094 224.992 22.0234C228.742 20.7578 231.918 20.125 234.52 20.125C236.629 20.125 238.41 20.6406 239.863 21.6719C241.41 22.7969 242.184 24.3086 242.184 26.207C242.184 29.1836 239.828 32.4766 235.117 36.0859C234.367 36.6719 233.688 37.1641 233.078 37.5625L231.812 38.4062C229.469 40.0469 225.906 41.8867 221.125 43.9258C222.602 44.6992 223.973 45.0859 225.238 45.0859C226.527 45.0859 227.676 44.9336 228.684 44.6289C229.715 44.3242 230.875 43.8906 232.164 43.3281C233.453 42.7656 234.824 42.0977 236.277 41.3242C237.754 40.5273 239.242 39.6602 240.742 38.7227C244.094 36.6367 247 34.5039 249.461 32.3242C250.75 31.1289 252.391 30.1797 254.383 29.4766C255.039 29.2656 255.613 29.1602 256.105 29.1602ZM217.328 39.0391L219.262 38.0547C219.895 37.7266 220.457 37.4219 220.949 37.1406C225.684 34.4219 228.379 32.7461 229.035 32.1133C229.691 31.4805 230.02 31.0469 230.02 30.8125C230.02 30.5547 229.949 30.2617 229.809 29.9336C229.668 29.6055 229.48 29.3125 229.246 29.0547C228.684 28.3984 228.086 28.0703 227.453 28.0703C226.82 28.0703 226.117 28.1875 225.344 28.4219C224.594 28.6562 223.832 28.9844 223.059 29.4062C222.285 29.8047 221.535 30.2969 220.809 30.8828C220.105 31.4453 219.484 32.0547 218.945 32.7109C217.703 34.1875 217.082 35.4648 217.082 36.543C217.082 37.6211 217.164 38.4531 217.328 39.0391ZM313.375 6.41406C314.945 6.41406 315.73 6.96484 315.73 8.06641C315.73 9.47266 314.641 11.4766 312.461 14.0781L311.793 14.8516C309.871 17.1953 307.434 18.8008 304.48 19.668C303.449 19.9727 302.605 20.125 301.949 20.125C301.105 20.125 300.449 20.1016 299.98 20.0547C299.512 20.0078 298.832 19.9492 297.941 19.8789L294.953 19.6328C292.422 19.4688 289.891 19.3164 287.359 19.1758C282.695 23.7461 278.734 28.7266 275.477 34.1172C274.281 36.1094 273.684 37.3398 273.684 37.8086C273.684 40.0586 274.434 41.6523 275.934 42.5898C277.457 43.5273 279.496 43.9961 282.051 43.9961C284.629 43.9961 286.82 43.8672 288.625 43.6094C290.453 43.3281 292.164 42.9883 293.758 42.5898C295.375 42.168 296.863 41.7109 298.223 41.2188C299.605 40.7031 300.812 40.2227 301.844 39.7773C302.898 39.332 303.766 38.9336 304.445 38.582L305.816 37.8789C306.543 37.6914 307.223 37.7734 307.855 38.125C308.98 38.8047 309.543 39.5781 309.543 40.4453C309.543 41.3125 309.039 42.1797 308.031 43.0469C299.898 50.0547 290.652 54.3086 280.293 55.8086C276.918 56.3008 273.719 56.5469 270.695 56.5469C267.672 56.5469 265.305 56.3828 263.594 56.0547C261.906 55.75 260.488 55.3281 259.34 54.7891C258.215 54.25 257.324 53.6289 256.668 52.9258C256.012 52.1992 255.52 51.4375 255.191 50.6406C254.699 49.4453 254.453 48.0508 254.453 46.457C254.453 44.8398 254.676 43.5156 255.121 42.4844C255.59 41.4531 256.164 40.457 256.844 39.4961C257.523 38.5352 258.262 37.5859 259.059 36.6484C259.879 35.7109 260.535 34.8906 261.027 34.1875C261.543 33.4844 262.117 32.7812 262.75 32.0781C266.359 28.3281 268.785 25.8438 270.027 24.625L276.074 18.8594C272.371 18.8594 269.793 19.0586 268.34 19.457C266.91 19.832 265.68 20.1836 264.648 20.5117C263.641 20.8398 262.609 21.1914 261.555 21.5664C260.5 21.9414 259.539 22.3047 258.672 22.6562C256.68 23.4531 255.508 24.0039 255.156 24.3086C254.805 24.5898 254.371 24.7305 253.855 24.7305C253.34 24.7305 252.859 24.6484 252.414 24.4844C251.992 24.2969 251.605 24.0391 251.254 23.7109C250.48 23.0312 250.094 22.2812 250.094 21.4609C250.094 20.6172 250.363 19.7969 250.902 19C251.465 18.2031 252.32 17.3008 253.469 16.293C254.617 15.2617 255.801 14.2656 257.02 13.3047L260.359 10.668C261.391 9.84766 262.082 9.17969 262.434 8.66406C263.465 7.16406 265.938 6.15625 269.852 5.64062C270.977 5.47656 272.125 5.39453 273.297 5.39453C274.492 5.39453 276.109 5.48828 278.148 5.67578C280.211 5.86328 282.672 6.0625 285.531 6.27344C293.172 6.88281 298.785 7.1875 302.371 7.1875C305.98 7.1875 308.043 7.14063 308.559 7.04688L310.141 6.80078C311.664 6.54297 312.742 6.41406 313.375 6.41406ZM324.027 57.3555C322.809 57.3555 321.648 57.0625 320.547 56.4766C319.469 55.9141 318.484 55.1055 317.594 54.0508C315.602 51.6367 314.605 48.7422 314.605 45.3672C314.605 43.9844 315.145 42.6016 316.223 41.2188C317.324 39.8125 319.117 38.5469 321.602 37.4219C327.18 34.9141 335.324 33.6602 346.035 33.6602C346.035 33.6602 355.844 26.0547 375.461 10.8438C376.445 10.0703 377.031 9.60156 377.219 9.4375C377.523 9.10938 377.91 8.94531 378.379 8.94531C378.871 8.94531 379.34 8.99219 379.785 9.08594C380.254 9.17969 380.676 9.30859 381.051 9.47266C381.871 9.82422 382.281 10.2344 382.281 10.7031C382.281 11.0312 382.199 11.2891 382.035 11.4766L361.926 33.5547H370.504C370.879 32.7109 371.5 31.5391 372.367 30.0391L375.602 24.7656C376.867 22.75 378.109 20.8516 379.328 19.0703L382.879 14.1484C386.512 9.29688 389.137 6.87109 390.754 6.87109C390.918 6.87109 391.551 7.09375 392.652 7.53906C393.777 7.96094 394.727 8.38281 395.5 8.80469C397.375 9.78906 398.312 10.7148 398.312 11.582C398.312 12.4023 397.949 13.2695 397.223 14.1836C396.496 15.0742 395.723 16.1289 394.902 17.3477C394.105 18.5664 393.238 19.9492 392.301 21.4961C391.387 23.0195 390.461 24.6484 389.523 26.3828C388.586 28.0938 387.742 29.7578 386.992 31.375C385.281 35.0547 384.426 37.5508 384.426 38.8633C384.426 40.1523 384.52 41.0898 384.707 41.6758C384.918 42.2617 385.164 42.6953 385.445 42.9766C385.891 43.4219 386.605 43.6445 387.59 43.6445C388.574 43.6445 389.57 43.4688 390.578 43.1172C391.609 42.7422 392.605 42.2852 393.566 41.7461C394.551 41.1836 395.512 40.5859 396.449 39.9531C397.387 39.2969 398.301 38.6875 399.191 38.125C401.254 36.8594 402.777 36.2266 403.762 36.2266C404.746 36.2266 405.402 36.4609 405.73 36.9297C406.082 37.375 406.258 37.9609 406.258 38.6875C406.258 39.4141 405.953 40.3984 405.344 41.6406C404.734 42.8594 403.879 44.125 402.777 45.4375C401.676 46.75 400.375 48.0508 398.875 49.3398C397.375 50.6055 395.734 51.7422 393.953 52.75C389.945 54.9766 386.02 56.0898 382.176 56.0898C378.707 56.0898 375.648 54.8711 373 52.4336C370.047 49.7383 368.57 46.2578 368.57 41.9922C368.57 41.7812 368.57 41.5703 368.57 41.3594C368.57 41.1484 368.582 40.9258 368.605 40.6914L353.875 42.5547C349.727 46.6328 344.711 50.125 338.828 53.0312C332.922 55.9141 327.988 57.3555 324.027 57.3555ZM412.516 45.0859C412.094 45.2734 411.613 45.3672 411.074 45.3672C410.559 45.3672 409.973 44.9922 409.316 44.2422C408.684 43.4922 408.109 42.5547 407.594 41.4297C406.469 38.8984 405.906 36.4258 405.906 34.0117C405.906 32.4883 406.199 31.2812 406.785 30.3906C406.785 30.3906 407.875 29.1953 410.055 26.8047C411.086 25.6328 412.199 24.6016 413.395 23.7109C427.223 13.6328 441.227 8.21875 455.406 7.46875C457.398 7.35156 458.945 7.29297 460.047 7.29297C461.148 7.29297 462.039 7.45703 462.719 7.78516C463.422 8.08984 464.09 8.5 464.723 9.01562C465.355 9.50781 465.953 10.0703 466.516 10.7031C467.078 11.3125 467.57 11.9219 467.992 12.5312C468.883 13.7734 469.328 14.6523 469.328 15.168C469.328 15.6836 469.223 16.293 469.012 16.9961C468.801 17.6758 468.555 18.4258 468.273 19.2461C467.992 20.043 467.688 20.8398 467.359 21.6367L466.586 23.6758C463.094 32.6992 458.945 41.1719 454.141 49.0938C452.547 51.7422 451.211 53.7812 450.133 55.2109C449.078 56.6641 448.188 57.8242 447.461 58.6914C446.758 59.5586 445.996 60.4141 445.176 61.2578C444.355 62.1016 443.477 62.8984 442.539 63.6484C441.602 64.4219 440.641 65.1016 439.656 65.6875C437.5 66.9531 435.367 67.5859 433.258 67.5859C431.852 67.5859 430.258 66.8477 428.477 65.3711C426.602 63.8008 425.664 62.207 425.664 60.5898C425.664 57.9648 428.23 54.1328 433.363 49.0938C436.059 46.4453 438.508 44.3008 440.711 42.6602C442.914 40.9961 444.508 39.8711 445.492 39.2852C449.172 32.3242 451.434 27.9648 452.277 26.207L454.246 22.0234C455.23 19.8438 455.723 18.543 455.723 18.1211C455.723 17.0664 455.16 16.5391 454.035 16.5391C452.91 16.5391 451.469 16.8086 449.711 17.3477C447.953 17.8867 446.066 18.625 444.051 19.5625C442.035 20.4766 439.938 21.5547 437.758 22.7969C435.602 24.0156 433.48 25.3164 431.395 26.6992C429.332 28.0586 427.352 29.4648 425.453 30.918C423.578 32.3711 421.914 33.7773 420.461 35.1367C417.25 38.1133 415.492 40.4102 415.188 42.0273C414.883 43.4805 413.992 44.5 412.516 45.0859Z" fill="#AE7B4C"/>
</svg>
